<svg width="1720" height="538" viewBox="0 0 1720 538" fill="none" xmlns="http://www.w3.org/2000/svg">
<rect x="-311" width="2030.33" height="538" rx="269" fill="#EEE6E2"/>
<mask id="mask0_151_418" style="mask-type:alpha" maskUnits="userSpaceOnUse" x="-311" y="0" width="2031" height="538">
<rect x="-311" width="2030.33" height="538" rx="269" fill="#EEE6E2"/>
</mask>
<g mask="url(#mask0_151_418)">
<line x1="72.012" y1="-7.03125" x2="72.0119" y2="616.24" stroke="#0A0A0A" stroke-opacity="0.18"/>
<line x1="156.253" y1="-7.03125" x2="156.253" y2="616.24" stroke="#0A0A0A" stroke-opacity="0.18"/>
<line x1="240.493" y1="-7.03125" x2="240.493" y2="616.24" stroke="#0A0A0A" stroke-opacity="0.18"/>
<line x1="324.734" y1="-7.03125" x2="324.734" y2="616.24" stroke="#0A0A0A" stroke-opacity="0.18"/>
<line x1="1931.21" y1="71.3789" x2="-96.9695" y2="71.3789" stroke="#0A0A0A" stroke-opacity="0.18"/>
<line x1="408.975" y1="-7.03125" x2="408.975" y2="616.24" stroke="#0A0A0A" stroke-opacity="0.18"/>
<line x1="1931.21" y1="149.285" x2="-96.9695" y2="149.285" stroke="#0A0A0A" stroke-opacity="0.18"/>
<line x1="493.216" y1="-7.03125" x2="493.216" y2="616.24" stroke="#0A0A0A" stroke-opacity="0.18"/>
<line x1="1931.21" y1="227.195" x2="-96.9695" y2="227.195" stroke="#0A0A0A" stroke-opacity="0.18"/>
<line x1="577.456" y1="-7.03125" x2="577.456" y2="616.24" stroke="#0A0A0A" stroke-opacity="0.18"/>
<line x1="1931.21" y1="305.105" x2="-96.9695" y2="305.105" stroke="#0A0A0A" stroke-opacity="0.18"/>
<line x1="661.697" y1="-7.03125" x2="661.697" y2="616.24" stroke="#0A0A0A" stroke-opacity="0.18"/>
<line x1="1931.21" y1="383.012" x2="-96.9695" y2="383.012" stroke="#0A0A0A" stroke-opacity="0.18"/>
<line x1="745.938" y1="-7.03125" x2="745.938" y2="616.24" stroke="#0A0A0A" stroke-opacity="0.18"/>
<line x1="1931.21" y1="460.922" x2="-96.9695" y2="460.922" stroke="#0A0A0A" stroke-opacity="0.18"/>
<line x1="830.178" y1="-7.03125" x2="830.178" y2="616.24" stroke="#0A0A0A" stroke-opacity="0.18"/>
<line x1="914.419" y1="-7.03125" x2="914.419" y2="616.24" stroke="#0A0A0A" stroke-opacity="0.18"/>
<line x1="998.66" y1="-7.03125" x2="998.66" y2="616.24" stroke="#0A0A0A" stroke-opacity="0.18"/>
<line x1="1082.9" y1="-7.03125" x2="1082.9" y2="616.24" stroke="#0A0A0A" stroke-opacity="0.18"/>
<line x1="1167.14" y1="-7.03125" x2="1167.14" y2="616.24" stroke="#0A0A0A" stroke-opacity="0.18"/>
<line x1="1251.38" y1="-7.03125" x2="1251.38" y2="616.24" stroke="#0A0A0A" stroke-opacity="0.18"/>
<line x1="1335.62" y1="-7.03125" x2="1335.62" y2="616.24" stroke="#0A0A0A" stroke-opacity="0.18"/>
<line x1="1419.86" y1="-7.03125" x2="1419.86" y2="616.24" stroke="#0A0A0A" stroke-opacity="0.18"/>
<line x1="1504.1" y1="-7.03125" x2="1504.1" y2="616.24" stroke="#0A0A0A" stroke-opacity="0.18"/>
<line x1="1588.34" y1="-7.03125" x2="1588.34" y2="616.24" stroke="#0A0A0A" stroke-opacity="0.18"/>
<line x1="1672.59" y1="-7.03125" x2="1672.59" y2="616.24" stroke="#0A0A0A" stroke-opacity="0.18"/>
</g>
</svg>
