<svg width="235" height="235" viewBox="0 0 235 235" fill="none" xmlns="http://www.w3.org/2000/svg">
<circle cx="117.5" cy="117.5" r="117.5" fill="#70CCC4"/>
<path d="M66.1265 115.972L62.5837 93.8536L72.758 92.2239C76.8973 91.5609 80.1724 93.5965 80.7342 97.1038C81.0126 98.8417 80.4289 100.458 79.1804 101.566L79.1905 101.629C81.2167 102.341 82.6528 104.023 83.0121 106.267C83.746 110.848 81.1984 113.558 75.2265 114.514L66.1265 115.972ZM69.8121 101.349L73.0982 100.822C74.4569 100.605 75.0294 99.9297 74.8421 98.7606C74.665 97.6547 73.9103 97.1922 72.5516 97.4098L69.2655 97.9362L69.8121 101.349ZM71.1989 110.006L74.9905 109.399C76.6336 109.136 77.2275 108.393 76.9997 106.971C76.7821 105.612 75.8808 105.043 74.3326 105.291L70.5409 105.899L71.1989 110.006ZM99.4276 102.86L104.782 109.78L98.3357 110.813L93.9083 104.619L91.6965 104.973L92.7746 111.703L86.7079 112.675L83.1651 90.557L92.8339 89.0083C97.8578 88.2036 101.168 90.4604 101.963 95.4211C102.469 98.5809 101.522 101.163 99.4175 102.797L99.4276 102.86ZM95.8964 96.3929C95.6484 94.8446 94.7104 94.2494 92.9726 94.5278L90.0972 94.9884L90.8362 99.6016L93.7115 99.141C95.3546 98.8778 96.1342 97.8779 95.8964 96.3929ZM120.467 107.268L119.127 104.566L111.448 105.795L111.019 108.781L105.047 109.738L109.151 86.3947L115.249 85.4179L126.407 106.316L120.467 107.268ZM112.187 100.492L116.737 99.7632L113.33 92.8551L113.266 92.8652L112.187 100.492ZM127.932 106.072L124.39 83.9538L130.298 83.0074L138.899 94.0097L138.962 93.9995L137.029 81.9294L143.095 80.9577L146.638 103.076L140.729 104.022L132.129 93.0199L132.066 93.03L133.999 105.1L127.932 106.072ZM150.303 102.489L146.761 80.3705L155.608 78.9534C160.664 78.1437 165.77 80.8906 166.98 88.4423C167.623 92.4551 167.13 95.4507 165.539 97.4556C163.943 99.4288 161.742 100.656 158.93 101.107L150.303 102.489ZM155.479 95.9558L157.565 95.6217C158.892 95.4092 159.874 94.863 160.474 93.9566C161.106 93.0452 161.252 91.531 160.913 89.414C160.286 85.496 158.489 84.1957 155.804 84.6259L153.718 84.9599L155.479 95.9558ZM54.2435 153.321L50.7007 131.203L56.7674 130.231L60.3101 152.349L54.2435 153.321ZM63.9942 151.759L60.4514 129.641L69.2986 128.224C74.3542 127.414 79.4609 130.161 80.6705 137.713C81.3133 141.726 80.8208 144.721 79.2299 146.726C77.6339 148.7 75.4324 149.927 72.6202 150.378L63.9942 151.759ZM69.1701 145.227L71.2555 144.892C72.5826 144.68 73.5646 144.134 74.1648 143.227C74.7966 142.316 74.9429 140.802 74.6038 138.685C73.9763 134.767 72.18 133.466 69.4942 133.897L67.4088 134.231L69.1701 145.227ZM84.6681 148.448L81.1254 126.33L96.0709 123.936L96.9515 129.434L88.0727 130.856L88.5585 133.889L96.7106 132.584L97.5002 137.513L89.3481 138.819L89.8542 141.978L98.8278 140.541L99.7084 146.039L84.6681 148.448ZM102.627 145.571L99.084 123.453L104.993 122.507L113.593 133.509L113.656 133.499L111.723 121.429L117.79 120.457L121.332 142.575L115.424 143.522L106.823 132.519L106.76 132.529L108.693 144.6L102.627 145.571ZM129.737 141.229L127.085 124.672L120.924 125.659L120.033 120.098L138.423 117.152L139.314 122.713L133.152 123.7L135.804 140.257L129.737 141.229ZM144.222 138.909L140.679 116.791L146.745 115.819L150.288 137.937L144.222 138.909ZM158.712 136.588L156.06 120.031L149.898 121.018L149.008 115.457L167.397 112.511L168.288 118.072L162.126 119.059L164.778 135.616L158.712 136.588ZM178.694 133.387L177.251 124.382L167.315 112.524L174.14 111.431L179.347 118.245L179.442 118.23L182.229 110.136L189.054 109.042L183.318 123.41L184.761 132.416L178.694 133.387ZM74.3742 185.543L70.8315 163.425L79.6787 162.008C84.7343 161.198 89.841 163.945 91.0506 171.497C91.6933 175.509 91.2009 178.505 89.61 180.51C88.014 182.483 85.8124 183.711 83.0003 184.161L74.3742 185.543ZM79.5501 179.01L81.6356 178.676C82.9626 178.463 83.9446 177.917 84.5448 177.011C85.1766 176.099 85.323 174.585 84.9839 172.468C84.3563 168.55 82.5601 167.25 79.8743 167.68L77.7889 168.014L79.5501 179.01ZM95.0482 182.231L91.5054 160.113L106.451 157.719L107.332 163.217L98.4527 164.64L98.9386 167.673L107.091 166.367L107.88 171.296L99.7281 172.602L100.234 175.762L109.208 174.324L110.088 179.822L95.0482 182.231ZM110.202 171.961L115.658 170.212C116.636 172.875 118.197 173.922 120.63 173.532C122.431 173.243 123.404 172.439 123.242 171.428C123.04 170.164 121.822 169.646 117.487 168.883C112.311 167.929 109.98 166.326 109.509 163.387C108.887 159.501 111.98 156.153 116.751 155.389C121.523 154.625 125.57 156.828 127.012 160.973L121.544 162.853C120.645 161.085 119.251 160.271 117.576 160.539C116.091 160.777 115.266 161.493 115.413 162.409C115.55 163.262 116.5 163.531 120.899 164.285C126.001 165.185 128.614 167.133 129.156 170.514C129.809 174.59 126.731 177.837 121.423 178.687C118.611 179.138 116.188 178.781 114.212 177.574C112.237 176.367 110.902 174.507 110.202 171.961ZM132.261 176.271L128.719 154.153L134.785 153.181L138.328 175.299L132.261 176.271ZM138.792 163.914C137.599 157.073 141.16 151.382 147.242 150.505C152.045 149.736 156.557 152.416 157.845 156.812L152.361 158.792C151.548 156.751 150.033 155.794 148.138 156.098C145.483 156.523 144.236 159.056 144.859 162.943C145.487 166.861 147.384 168.793 150.417 168.307C152.44 167.983 153.415 166.79 153.221 164.974L149.493 165.571L148.795 161.21L158.179 159.707L158.69 162.899C159.616 168.681 156.653 173.044 150.997 173.95C144.804 174.942 139.911 170.897 138.792 163.914ZM162.501 171.427L158.958 149.309L164.867 148.363L173.467 159.365L173.53 159.355L171.597 147.285L177.664 146.313L181.206 168.431L175.298 169.377L166.697 158.375L166.634 158.385L168.568 170.455L162.501 171.427Z" fill="#0A0A0A"/>
<g clip-path="url(#clip0_151_1052)">
<path d="M98.4424 66.9627L94 38.7734L110.525 36.1692C110.937 36.1043 112.418 36.3615 112.888 36.4862C117.948 37.8368 119.984 44.2635 116.727 48.345L98.4424 66.9627Z" fill="black"/>
<path d="M99.2341 71.988L98.9845 70.3856L99.1306 69.9978L115.619 53.1048C121.66 54.6256 124.038 61.9537 119.919 66.7303C119.077 67.7069 117.031 69.1833 115.76 69.3838L99.2341 71.988Z" fill="black"/>
</g>
<circle cx="118.5" cy="117.5" r="104" stroke="black"/>
<defs>
<clipPath id="clip0_151_1052">
<rect width="24.2399" height="33.623" fill="white" transform="translate(94 38.7734) rotate(-8.95572)"/>
</clipPath>
</defs>
</svg>
