<svg width="238" height="238" viewBox="0 0 238 238" fill="none" xmlns="http://www.w3.org/2000/svg">
<circle cx="119" cy="119" r="119" fill="#A6DE77"/>
<path d="M118.078 136.167C128.108 136.864 136.246 127.234 134.917 116.555C133.253 103.166 118.24 96.8056 108.639 105.678C97.6268 115.856 103.659 135.166 118.076 136.167H118.078ZM118.078 129.204C104.709 127.775 107.987 105.401 121.327 108.853C132.721 111.8 129.819 130.459 118.078 129.204Z" fill="black"/>
<path d="M131.446 146.539C133.711 146.889 141.154 146.816 143.358 146.344C147.288 145.502 150.261 142.098 150.978 137.874L151 100.027C150.35 95.7787 147.304 92.2491 143.36 91.416C141.027 90.9247 134.002 90.8879 131.573 91.1996C127.596 91.7081 127.755 97.7069 131.406 98.1483C134.536 98.527 138.293 97.8475 141.479 98.1418C143.571 98.3366 144.653 99.9229 144.711 102.111C144.205 113.041 145.363 124.641 144.711 135.493C144.593 137.463 143.924 139.259 141.885 139.575C138.683 140.07 134.644 139.224 131.406 139.616C127.795 140.055 127.6 145.944 131.446 146.539Z" fill="black"/>
<path d="M94.2706 138.588C93.5239 137.778 93.4416 136.733 93.3091 135.655C93.8129 124.722 92.6607 113.128 93.3091 102.273C93.4295 100.249 94.0658 98.5115 96.1354 98.1912C99.3371 97.6957 103.376 98.5418 106.616 98.1501C109.946 97.7455 110.466 92.5344 107.174 91.3918C105.743 90.8962 98.1247 91.0391 96.2418 91.1776C91.4503 91.5303 87.6444 95.1724 87 100.329V137.436C87.4356 141.353 90.0773 144.87 93.5841 146.049C96.0651 146.884 103.4 146.843 106.168 146.588C110.418 146.194 110.265 140.267 106.879 139.654C103.834 139.105 99.5981 139.96 96.3984 139.613C95.6637 139.533 94.7925 139.15 94.2706 138.585V138.588Z" fill="black"/>
</svg>
