<svg width="200" height="118" viewBox="0 0 200 118" fill="none" xmlns="http://www.w3.org/2000/svg">
<rect x="11.8413" y="0.101562" width="188.798" height="95.5098" rx="12" transform="rotate(7.02016 11.8413 0.101562)" fill="#F29001"/>
<path d="M87.7968 32.0183C93.6379 32.7271 97.186 37.8082 96.3899 44.3681C95.5939 50.9279 90.9412 54.9526 85.1002 54.244C84.9626 54.2273 84.8265 54.2053 84.6915 54.1838L85.3458 48.8704C85.4844 48.9018 85.6268 48.9279 85.7734 48.9457C88.3194 49.2546 90.1984 47.2941 90.6382 43.6697C91.0779 40.0456 89.6997 37.6294 87.1838 37.3239C87.0446 37.307 86.9068 37.2976 86.7712 37.2948L87.4254 31.9824C87.5485 31.9931 87.6725 32.0032 87.7968 32.0183Z" fill="#F5F5F5"/>
<path d="M60.9857 28.9564L87.5462 31.9898L86.8987 37.2484L60.3957 33.7475L60.9857 28.9564Z" fill="url(#paint0_linear_151_1066)"/>
<path d="M58.7762 45.9095L85.3368 48.943L84.6892 54.2015L58.1862 50.7006L58.7762 45.9095Z" fill="url(#paint1_linear_151_1066)"/>
<path d="M35.0713 48.0929L37.7697 25.856L44.7266 26.7002L48.4493 40.9162L48.5128 40.9239L55.4957 28.007L62.4526 28.8512L59.7543 51.088L53.7821 50.3634L55.2585 38.1966L55.1949 38.1889L48.9217 49.7736L45.9039 49.4074L42.5834 36.6585L42.5199 36.6508L41.0435 48.8176L35.0713 48.0929Z" fill="#F5F5F5"/>
<path d="M102.248 56.0509L104.268 39.405L98.0733 38.6533L98.7517 33.0623L117.24 35.3058L116.562 40.8968L110.367 40.1451L108.347 56.791L102.248 56.0509Z" fill="#F5F5F5"/>
<path d="M116.81 57.8179L119.508 35.581L125.607 36.3211L122.909 58.558L116.81 57.8179Z" fill="#F5F5F5"/>
<path d="M126.497 47.7435C127.341 40.7865 132.251 36.4504 138.446 37.2021C144.64 37.9538 148.403 43.3422 147.558 50.2992C146.714 57.2561 141.78 61.5249 135.586 60.7732C129.391 60.0215 125.653 54.7004 126.497 47.7435ZM141.459 49.5591C141.926 45.7153 140.464 43.1525 137.795 42.8287C135.127 42.5049 133.063 44.6398 132.596 48.4836C132.134 52.2956 133.599 54.8266 136.3 55.1543C139 55.4819 140.993 53.4029 141.459 49.5591Z" fill="#F5F5F5"/>
<path d="M148.484 61.6614L151.182 39.4245L157.123 40.1453L162.353 53.0937L162.416 53.1014L163.889 40.9664L169.988 41.7065L167.29 63.9434L161.349 63.2226L156.119 50.2742L156.056 50.2665L154.583 62.4015L148.484 61.6614Z" fill="#F5F5F5"/>
<path d="M32.865 65.0256C33.6062 58.1206 38.5991 53.6334 44.6868 54.4688C49.5154 55.0547 53.1132 58.876 53.1377 63.4563L47.3203 63.8463C47.1021 61.6601 45.9105 60.3229 44.0045 60.0916C41.3361 59.7678 39.4384 61.8584 38.9643 65.7657C38.4863 69.7048 39.7769 72.0856 42.8265 72.4557C44.8596 72.7024 46.1266 71.8246 46.4416 70.0255L42.6931 69.5706L43.225 65.1868L52.6598 66.3316L52.2705 69.5401C51.5651 75.3535 47.5128 78.7299 41.8265 78.0399C35.6002 77.2844 32.0131 72.0461 32.865 65.0256ZM68.5142 72.8651L71.7506 80.9941L65.2701 80.2077L62.7239 73.0328L60.5002 72.7629L59.6791 79.5293L53.5799 78.7892L56.2782 56.5523L65.9989 57.7319C71.0499 58.3448 73.6091 61.4275 73.0039 66.4149C72.6185 69.5916 70.9951 71.8123 68.522 72.8015L68.5142 72.8651ZM66.9047 65.6748C67.0936 64.1182 66.3563 63.2874 64.6091 63.0754L61.7183 62.7246L61.1555 67.3626L64.0463 67.7133C65.6982 67.9138 66.7235 67.1679 66.9047 65.6748ZM87.5202 82.9077L86.9776 79.9407L79.2582 79.004L78.0218 81.7551L72.0179 81.0266L82.4038 59.7225L88.5348 60.4665L93.4923 83.6324L87.5202 82.9077ZM81.4316 74.1102L86.006 74.6653L84.6372 67.0852L84.5736 67.0775L81.4316 74.1102ZM95.0258 83.8185L97.7242 61.5816L107.318 62.7457C112.369 63.3586 115.04 66.5839 114.423 71.6666C113.806 76.7493 110.449 79.1786 105.398 78.5657L101.904 78.1417L101.125 84.5586L95.0258 83.8185ZM102.563 72.7095L105.422 73.0564C106.979 73.2453 108.131 72.5148 108.335 70.8312C108.532 69.211 107.802 68.3166 106.119 68.1123L103.164 67.7539L102.563 72.7095ZM114.849 86.2239L117.548 63.987L123.647 64.7272L122.672 72.7642L128.485 73.4696L129.46 65.4326L135.559 66.1727L132.861 88.4096L126.762 87.6695L127.806 79.0606L121.993 78.3552L120.948 86.9641L114.849 86.2239ZM136.565 88.859L139.263 66.6221L145.362 67.3623L142.664 89.5991L136.565 88.859ZM146.252 78.7846C147.096 71.8276 151.911 67.48 158.042 68.2239C163.061 68.833 166.584 72.7418 166.645 77.5522L160.637 77.9191C160.505 75.55 159.298 74.0818 157.36 73.8467C154.691 73.5229 152.825 75.6174 152.351 79.5247C151.885 83.3685 153.196 85.8485 155.864 86.1723C157.897 86.419 159.389 85.2784 160.115 82.7554L165.864 84.5169C164.624 89.4272 160.296 92.4157 155.182 91.795C148.892 91.0318 145.408 85.7416 146.252 78.7846Z" fill="#F5F5F5"/>
<path d="M185.173 38.0175L192.983 37.6059V42.0304L178 42.3734L178.351 26.253H182.495L182.112 34.9306L193.94 22L197 25.3613L185.173 37.9832V38.0175Z" fill="#EEE6E2"/>
<defs>
<linearGradient id="paint0_linear_151_1066" x1="91.4709" y1="35.0704" x2="60.6256" y2="32.0161" gradientUnits="userSpaceOnUse">
<stop offset="0.136868" stop-color="#F5F5F5"/>
<stop offset="0.850782" stop-color="#F29001"/>
</linearGradient>
<linearGradient id="paint1_linear_151_1066" x1="89.2614" y1="52.0235" x2="58.4162" y2="48.9692" gradientUnits="userSpaceOnUse">
<stop offset="0.136868" stop-color="#F5F5F5"/>
<stop offset="0.850782" stop-color="#F29001"/>
</linearGradient>
</defs>
</svg>
