<svg width="298" height="200" viewBox="0 0 298 200" fill="none" xmlns="http://www.w3.org/2000/svg">
<path d="M263.255 83.0359C264.856 87.7417 262.339 92.8541 257.633 94.4548L158.565 128.154C155.128 129.323 152.73 132.443 152.484 136.065L151.209 154.838C150.963 158.46 148.565 161.579 145.128 162.748L46.1993 196.4C41.4935 198.001 36.3811 195.483 34.7804 190.778L2.89836 97.0518C1.29764 92.346 3.81477 87.2336 8.52053 85.6329L229.108 10.5975C233.813 8.99675 238.926 11.5139 240.527 16.2196L263.255 83.0359Z" fill="#8BD6C6"/>
<path d="M33.0537 117.433L25.904 96.2045L35.0625 93.1199C39.8844 91.4959 43.6846 93.2549 45.3189 98.1071C46.9531 102.959 44.9709 106.598 40.1491 108.222L36.8132 109.346L38.8764 115.472L33.0537 117.433ZM35.0666 104.16L37.796 103.241C39.2819 102.74 40.0069 101.584 39.4656 99.9772C38.9447 98.4306 37.9009 97.938 36.2936 98.4793L33.4732 99.4292L35.0666 104.16ZM62.9005 99.2765L69.3246 105.217L63.138 107.3L57.7479 101.924L55.6251 102.639L57.8006 109.098L51.978 111.059L44.8283 89.8308L54.1081 86.7053C58.93 85.0813 62.568 86.7599 64.1716 91.5211C65.193 94.5538 64.6853 97.2572 62.8801 99.2159L62.9005 99.2765ZM58.349 93.4822C57.8485 91.9962 56.8251 91.5643 55.1572 92.126L52.3975 93.0555L53.8887 97.4831L56.6484 96.5537C58.2254 96.0225 58.829 94.9075 58.349 93.4822ZM71.6722 104.426L64.5225 83.1978L70.3452 81.2367L77.4949 102.465L71.6722 104.426ZM81.0307 101.274L73.881 80.0458L79.552 78.1358L89.8525 87.5653L89.9132 87.5449L86.0115 75.9603L91.8341 73.9992L98.9838 95.2275L93.3128 97.1375L83.0123 87.7081L82.9516 87.7285L86.8533 99.3131L81.0307 101.274ZM107.051 92.5106L101.699 76.6197L95.7851 78.6114L93.9875 73.2739L111.637 67.3295L113.435 72.6669L107.521 74.6586L112.873 90.5495L107.051 92.5106ZM128.682 85.2252L121.532 63.9969L130.024 61.137C134.876 59.5028 140.366 61.3679 142.807 68.6158C144.104 72.4672 144.114 75.503 142.876 77.7432C141.628 79.9532 139.66 81.5278 136.961 82.4368L128.682 85.2252ZM132.707 77.9267L134.708 77.2526C135.982 76.8236 136.86 76.1227 137.302 75.1296C137.775 74.1263 137.669 72.6087 136.985 70.5769C135.718 66.8164 133.732 65.8309 131.154 66.6991L129.152 67.3732L132.707 77.9267ZM148.524 78.5423L141.375 57.314L155.719 52.4828L157.496 57.7596L148.974 60.6297L149.955 63.541L157.779 60.9058L159.372 65.6367L151.548 68.2719L152.57 71.3045L161.182 68.4037L162.959 73.6805L148.524 78.5423ZM161.772 65.9089L166.864 63.2823C168.268 65.747 169.981 66.5208 172.316 65.7344C174.045 65.1522 174.872 64.1984 174.545 63.228C174.136 62.0149 172.85 61.7052 168.448 61.6683C163.186 61.5836 160.622 60.3873 159.672 57.567C158.416 53.8369 160.913 50.0242 165.493 48.4819C170.072 46.9396 174.428 48.444 176.534 52.2929L171.453 55.051C170.274 53.4559 168.765 52.8838 167.157 53.4251C165.732 53.9052 165.036 54.7472 165.333 55.6267C165.608 56.4455 166.59 56.5537 171.053 56.5702C176.234 56.6148 179.133 58.1034 180.226 61.3483C181.543 65.2604 179.045 68.9718 173.951 70.6878C171.252 71.5968 168.803 71.6449 166.655 70.7813C164.507 69.9178 162.883 68.3037 161.772 65.9089ZM184.24 66.5131L177.091 45.2848L182.913 43.3237L190.063 64.552L184.24 66.5131ZM188.639 53.2471C186.332 46.697 188.903 40.496 194.756 38.6259C199.366 37.0734 204.259 38.9707 206.256 43.0931L201.175 45.9525C200.035 44.0739 198.384 43.3808 196.564 43.9936C194.017 44.8516 193.206 47.556 194.462 51.2861C195.728 55.0465 197.919 56.6386 200.83 55.658C202.771 55.0043 203.536 53.6662 203.045 51.907L199.466 53.1122L198.057 48.9272L207.064 45.8937L208.095 48.9566C209.965 54.5063 207.763 59.2996 202.335 61.1279C196.391 63.1298 190.896 59.9492 188.639 53.2471ZM213.263 56.7381L206.114 35.5098L211.785 33.5998L222.085 43.0292L222.146 43.0088L218.244 31.4242L224.067 29.4632L231.217 50.6915L225.546 52.6015L215.245 43.172L215.184 43.1924L219.086 54.777L213.263 56.7381ZM79.6926 138.657L72.5429 117.428L81.7014 114.344C86.5232 112.72 90.3235 114.479 91.9577 119.331C93.5919 124.183 91.6097 127.822 86.7879 129.446L83.452 130.57L85.5152 136.696L79.6926 138.657ZM81.7054 125.384L84.4348 124.465C85.9208 123.964 86.6458 122.808 86.1044 121.201C85.5835 119.654 84.5397 119.162 82.9324 119.703L80.1121 120.653L81.7054 125.384ZM109.517 128.612L107.749 126.168L100.379 128.65L100.449 131.666L94.7178 133.596L94.907 109.896L100.76 107.925L115.218 126.692L109.517 128.612ZM100.231 123.298L104.598 121.827L100.096 115.577L100.035 115.597L100.231 123.298ZM111.13 116.284C108.893 109.643 111.364 103.644 117.217 101.673C122.009 100.059 126.872 102.068 129.001 106.382L123.737 109.303C122.598 107.222 120.875 106.418 119.025 107.041C116.478 107.899 115.697 110.593 116.953 114.323C118.189 117.992 120.44 119.665 122.988 118.807C124.929 118.154 125.784 116.481 125.351 113.892L131.298 113.003C132.295 117.969 129.678 122.531 124.796 124.175C118.791 126.197 113.367 122.925 111.13 116.284ZM135.606 119.825L128.457 98.5965L134.279 96.6354L136.904 104.429L136.965 104.409L140.254 94.6233L147.047 92.3354L142.641 104.219L154.682 113.4L147.676 115.76L140.615 109.832L140.554 109.852L139.611 112.466L141.429 117.864L135.606 119.825ZM169.814 108.304L168.046 105.86L160.676 108.342L160.746 111.358L155.015 113.288L155.204 89.588L161.057 87.6167L175.515 106.384L169.814 108.304ZM160.528 102.99L164.895 101.519L160.393 95.269L160.332 95.2894L160.528 102.99ZM171.427 95.9759C169.12 89.4258 171.691 83.2248 177.544 81.3547C182.154 79.8022 187.047 81.6995 189.044 85.8219L183.963 88.6813C182.823 86.8027 181.172 86.1096 179.352 86.7224C176.805 87.5804 175.994 90.2848 177.25 94.0149C178.516 97.7753 180.707 99.3674 183.618 98.3868C185.559 97.7331 186.324 96.395 185.833 94.6358L182.255 95.841L180.845 91.656L189.852 88.6225L190.883 91.6854C192.753 97.2351 190.551 102.028 185.123 103.857C179.179 105.859 173.685 102.678 171.427 95.9759ZM196.052 99.4669L188.902 78.2386L194.724 76.2775L201.874 97.5058L196.052 99.4669ZM205.41 96.315L198.26 75.0866L203.931 73.1766L214.232 82.6061L214.292 82.5857L210.391 71.0011L216.213 69.04L223.363 90.2683L217.692 92.1783L207.392 82.7489L207.331 82.7693L211.233 94.3539L205.41 96.315ZM221.922 78.9695C219.614 72.4193 222.185 66.2183 228.039 64.3482C232.648 62.7957 237.542 64.693 239.538 68.8154L234.457 71.6748C233.318 69.7962 231.666 69.1031 229.846 69.7159C227.299 70.5739 226.488 73.2783 227.744 77.0084C229.011 80.7688 231.201 82.3609 234.113 81.3803C236.054 80.7266 236.818 79.3885 236.327 77.6293L232.749 78.8345L231.339 74.6495L240.346 71.616L241.378 74.6789C243.247 80.2286 241.046 85.0219 235.617 86.8502C229.673 88.8521 224.179 85.6715 221.922 78.9695Z" fill="#010501"/>
<path d="M86.255 167.458L97.0208 163.832L98.1443 167.168L83.2845 172.173L82.3959 169.534C81.8035 167.775 81.7279 166.248 82.149 164.991C82.6199 163.482 83.8094 162.001 86.1905 159.747C89.5201 156.6 90.3255 155.282 89.7535 153.583C89.1918 151.916 87.409 151.334 85.1952 152.08C82.5265 152.979 81.4094 154.976 82.0759 157.756L78.3751 158.699C77.197 154.098 79.3305 150.307 84.0614 148.714C88.2464 147.304 92.2181 148.87 93.3927 152.358C94.3834 155.299 93.2581 157.873 89.646 161.285C88.183 162.655 87.2447 163.579 86.8112 164.096C86.3777 164.614 86.1261 165.07 86.0364 165.505C85.9167 166.052 85.9585 166.477 86.255 167.458ZM98.6852 161.077L101.805 158.81C103.188 160.911 105.102 161.583 107.741 160.694C110.318 159.826 111.577 157.646 110.8 155.342C110.024 153.037 107.694 152.032 105.116 152.9C103.418 153.472 102.136 154.579 101.271 156.221L97.6386 156.465L96.0653 145.177L107.832 141.214L108.955 144.55L99.9485 147.584L100.621 152.388L100.692 152.398C101.66 151.16 102.983 150.276 104.62 149.724C108.987 148.254 113.101 150.143 114.45 154.146C115.89 158.422 113.575 162.477 108.875 164.06C104.659 165.48 100.861 164.429 98.6852 161.077Z" fill="#010501"/>
<g clip-path="url(#clip0_151_1078)">
<path d="M59.0692 155.053C66.2877 152.457 73.9112 156.358 76.2022 163.506C78.703 170.582 75.0673 178.267 67.763 180.611C60.5484 183.206 52.9824 179.336 50.6457 172.204C48.1054 165.136 51.8502 157.372 59.0692 155.053ZM59.9741 157.713C54.2877 159.507 51.5842 165.714 53.5481 171.212C55.4567 176.823 61.1307 179.899 66.8581 177.951C72.5445 176.157 75.2337 169.908 73.2984 164.494C71.5024 158.938 65.5747 155.667 59.9741 157.713ZM61.0888 160.302C64.3665 159.187 67.6179 160.447 69.0515 163.435L66.1917 165.103C65.2383 163.389 63.7771 162.773 62.1211 163.336C60.1293 164.014 59.4652 166.142 60.3844 168.844C61.3036 171.546 63.1273 172.828 65.1191 172.15C66.779 171.585 67.5758 170.248 67.2812 168.306L70.5648 167.884C71.2517 171.13 69.4421 174.108 66.1644 175.223C62.3487 176.521 58.5061 174.348 57.0227 169.987C55.5393 165.626 57.2744 161.604 61.0901 160.306L61.0888 160.302Z" fill="#010501"/>
</g>
<path d="M69.3558 129.155L62.8896 142.84L59.2479 140.837L62.7947 133.795L36.8591 143.255L35.5683 139.186L61.4749 129.736L54.7063 126.504L56.4488 122.537L69.3558 129.155Z" fill="#010501"/>
<defs>
<clipPath id="clip0_151_1078">
<rect width="27" height="27" fill="white" transform="translate(46.2877 159.398) rotate(-18.7864)"/>
</clipPath>
</defs>
</svg>
