<svg width="263" height="264" viewBox="0 0 263 264" fill="none" xmlns="http://www.w3.org/2000/svg">
<path d="M183.212 187.242L196.411 205.34L188.603 211.035C184.492 214.033 180.339 213.498 177.322 209.361C174.305 205.224 175.102 201.158 179.213 198.16L182.057 196.085L178.248 190.863L183.212 187.242ZM185.281 200.506L182.954 202.203C181.687 203.127 181.343 204.448 182.342 205.818C183.304 207.137 184.448 207.293 185.818 206.293L188.222 204.54L185.281 200.506Z" fill="#010501"/>
<path d="M159.109 209.763L152.308 204.258L158.345 201.772L164.077 206.783L166.148 205.93L163.552 199.627L169.233 197.288L177.763 218L168.709 221.729C164.004 223.666 160.264 222.231 158.351 217.585C157.132 214.626 157.461 211.895 159.134 209.822L159.109 209.763ZM164.032 215.245C164.629 216.695 165.678 217.059 167.306 216.389L169.998 215.28L168.219 210.96L165.527 212.069C163.988 212.703 163.459 213.855 164.032 215.245Z" fill="#010501"/>
<path d="M155.662 214.852C156.634 221.793 153.003 227.245 146.823 228.11C140.643 228.975 135.623 224.734 134.651 217.793C133.68 210.853 137.352 205.46 143.531 204.595C149.711 203.73 154.691 207.912 155.662 214.852ZM140.736 216.942C141.273 220.776 143.344 222.877 146.006 222.505C148.668 222.132 150.114 219.539 149.578 215.704C149.045 211.901 146.979 209.832 144.285 210.209C141.591 210.586 140.199 213.107 140.736 216.942Z" fill="#010501"/>
<path d="M133.709 206.538L131.184 228.795L122.281 227.785C117.194 227.208 113.012 223.191 113.874 215.592C114.332 211.554 115.611 208.8 117.682 207.296C119.749 205.824 122.199 205.232 125.029 205.553L133.709 206.538ZM126.969 211.442L124.871 211.204C123.535 211.052 122.443 211.315 121.621 212.027C120.768 212.735 120.221 214.154 119.979 216.285C119.532 220.227 120.913 221.962 123.616 222.269L125.714 222.507L126.969 211.442Z" fill="#010501"/>
<path d="M113.244 211.568L107.947 225.371L102.211 223.169L107.302 209.905C108.116 207.784 107.582 206.585 105.52 205.794C103.519 205.025 102.267 205.608 101.476 207.669L96.3851 220.934L90.649 218.732L95.9461 204.93C97.815 200.06 102.082 198.407 107.55 200.506C113.077 202.627 115.136 206.639 113.244 211.568Z" fill="#010501"/>
<path d="M92.8568 207.449C88.8234 213.18 82.5251 214.735 77.4746 211.18C73.3399 208.27 72.0841 203.16 74.3049 198.893L79.7723 201.41C78.768 203.56 79.1381 205.425 80.7344 206.548C82.9326 208.095 85.5671 207.132 87.8324 203.913C90.0609 200.747 90.0785 197.942 87.8804 196.395C86.2056 195.216 84.3514 195.515 82.5194 197.396L78.2859 193.125C81.7008 189.385 86.9271 188.798 91.1402 191.763C96.3216 195.41 96.8902 201.718 92.8568 207.449Z" fill="#010501"/>
<path d="M80.549 183.615L67.9787 194.713L72.1085 199.391L67.8864 203.118L55.5606 189.156L59.7826 185.429L63.9124 190.107L76.4827 179.009L80.549 183.615Z" fill="#010501"/>
<path d="M62.3261 113.77L41.4681 105.603L44.9916 96.6038C46.8468 91.8661 50.6369 90.0854 55.4044 91.9522C60.172 93.819 61.6857 97.6765 59.8306 102.414L58.5472 105.692L64.5662 108.049L62.3261 113.77ZM53.4519 103.697L54.5019 101.015C55.0737 99.555 54.6542 98.2567 53.0749 97.6383C51.5552 97.0432 50.507 97.5263 49.8886 99.1055L48.8035 101.877L53.4519 103.697Z" fill="#010501"/>
<path d="M68.6803 97.8561L50.4425 84.8506L54.0097 79.8482L60.6014 84.5488L64.0014 79.7809L57.4098 75.0803L60.977 70.078L79.2148 83.0835L75.6475 88.0858L68.5869 83.0508L65.1869 87.8187L72.2475 92.8537L68.6803 97.8561Z" fill="#010501"/>
<path d="M71.4634 74.8814C66.9528 69.518 67.1323 62.9698 71.9079 58.9535C76.6836 54.9372 83.1901 55.8626 87.7007 61.2261C92.2113 66.5895 91.9661 73.1093 87.1904 77.1256C82.4147 81.1419 75.9739 80.2449 71.4634 74.8814ZM82.9985 65.1806C80.5063 62.2172 77.6352 61.5377 75.578 63.2678C73.5208 64.9979 73.6734 67.9636 76.1656 70.9269C78.6371 73.8658 81.4876 74.5208 83.5693 72.7701C85.651 71.0195 85.4906 68.1439 82.9985 65.1806Z" fill="#010501"/>
<path d="M98.2277 68.595L90.7406 53.5914L85.1572 56.3776L82.6424 51.3382L99.3068 43.0224L101.822 48.0618L96.2381 50.848L103.725 65.8516L98.2277 68.595Z" fill="#010501"/>
<path d="M104.56 53.0551C103.018 46.2188 106.187 40.4853 112.274 39.1125C118.361 37.7397 123.715 41.5513 125.256 48.3876C126.798 55.2239 123.585 60.902 117.497 62.2748C111.41 63.6476 106.102 59.8914 104.56 53.0551ZM119.263 49.7393C118.411 45.9621 116.173 44.0394 113.551 44.6307C110.929 45.2221 109.702 47.9263 110.554 51.7034C111.398 55.4494 113.629 57.3409 116.283 56.7425C118.936 56.1441 120.115 53.5164 119.263 49.7393Z" fill="#010501"/>
<path d="M125.991 48.3185C126.093 41.3746 130.652 36.4468 136.791 36.7183C141.653 36.8573 145.587 40.3312 146.033 44.8898L140.276 45.8136C139.858 43.6568 138.548 42.4349 136.629 42.38C133.942 42.3032 132.245 44.5596 132.132 48.494C132.019 52.4604 133.523 54.7123 136.594 54.8001C138.641 54.8586 139.822 53.8679 139.97 52.0474L136.196 51.9395L136.322 47.5253L145.822 47.7969L145.729 51.0276C145.562 56.8812 141.838 60.6163 136.112 60.4526C129.843 60.2734 125.789 55.3876 125.991 48.3185Z" fill="#010501"/>
<path d="M160.713 56.5788L162.669 65.1069L156.385 63.3394L154.965 55.8596L152.808 55.2531L150.963 61.8146L145.049 60.151L151.113 38.5877L160.54 41.2389C165.438 42.6165 167.496 46.0542 166.135 50.8905C165.269 53.971 163.325 55.9175 160.73 56.5172L160.713 56.5788ZM160.221 49.227C160.645 47.7176 160.044 46.7838 158.35 46.3073L155.546 45.5188L154.281 50.0163L157.085 50.8048C158.686 51.2553 159.814 50.6748 160.221 49.227Z" fill="#010501"/>
<path d="M173.929 71.781L174.582 68.8364L167.833 64.9737L165.625 67.0281L160.376 64.0238L178.224 48.4298L183.584 51.4977L179.15 74.7694L173.929 71.781ZM171.738 61.3089L175.737 63.598L177.421 56.0816L177.365 56.0498L171.738 61.3089Z" fill="#010501"/>
<path d="M178.039 74.2731L193.446 58.0129L200.461 64.6598C204.154 68.1594 204.38 72.3409 200.858 76.0575C197.337 79.7741 193.193 79.7273 189.5 76.2278L186.945 73.8067L182.499 78.4989L178.039 74.2731ZM190.708 69.8346L192.799 71.8155C193.937 72.8939 195.298 72.9931 196.464 71.762C197.587 70.5773 197.533 69.4243 196.302 68.2578L194.142 66.2109L190.708 69.8346Z" fill="#010501"/>
<path d="M190.378 86.119L209.314 74.1537L212.596 79.3477L205.752 83.6723L208.88 88.6228L215.724 84.2982L219.006 89.4923L200.07 101.458L196.788 96.2635L204.119 91.6312L200.991 86.6807L193.66 91.313L190.378 86.119Z" fill="#010501"/>
<path d="M200.507 102.383L221.704 95.1419L226.597 109.465L221.328 111.265L218.421 102.756L215.514 103.749L218.183 111.562L213.459 113.176L210.79 105.363L207.762 106.397L210.7 114.997L205.431 116.797L200.507 102.383Z" fill="#010501"/>
<path d="M214.476 130.424L207.256 135.366L206.6 128.871L213.041 124.812L212.816 122.583L206.034 123.268L205.417 117.155L227.703 114.904L228.687 124.647C229.198 129.709 226.753 132.883 221.754 133.388C218.57 133.709 216.048 132.613 214.539 130.418L214.476 130.424ZM221.137 127.275C222.697 127.117 223.346 126.216 223.169 124.464L222.876 121.567L218.228 122.037L218.521 124.934C218.688 126.589 219.641 127.426 221.137 127.275Z" fill="#010501"/>
<path d="M59.7783 179.567C46.9574 159.958 42.5536 135.736 47.8546 112.739M193.439 193.259C197.742 188.935 201.65 184.086 205.068 178.735C213.272 165.889 217.658 151.697 218.519 137.491" stroke="#010501" stroke-width="4"/>
</svg>
