<svg width="304" height="131" viewBox="0 0 304 131" fill="none" xmlns="http://www.w3.org/2000/svg">
<path d="M236.436 5.72449C244.132 4.97681 250.977 10.6091 251.725 18.3047L253.948 41.1775L282.987 38.3556C290.682 37.6079 297.527 43.2402 298.275 50.9358L301.89 88.1327C302.637 95.8281 297.005 102.673 289.309 103.421L24.7335 129.132C17.0379 129.88 10.1931 124.247 9.445 116.552L5.83032 79.3547C5.70678 78.0835 5.75805 76.8352 5.96326 75.634C5.95444 75.5565 5.94524 75.4789 5.93767 75.401L2.74048 42.5003C1.99263 34.8046 7.625 27.9597 15.3207 27.2119L236.436 5.72449Z" fill="#F3D30B"/>
<path d="M35.0479 64.8201L33.4259 50.1253L39.5328 49.4513L41.0916 63.5735C41.3409 65.8318 42.3651 66.6524 44.5597 66.4101C46.6908 66.1749 47.5362 65.0835 47.2939 62.8889L45.7351 48.7666L51.842 48.0926L53.464 62.7873C54.0363 67.9718 51.0018 71.3974 45.1812 72.0399C39.2969 72.6894 35.6272 70.0682 35.0479 64.8201ZM57.8165 69.9691L55.3589 47.7044L61.4658 47.0303L63.9234 69.2951L57.8165 69.9691ZM65.9229 62.1526L65.3857 57.2861L74.5143 56.2785L75.0514 61.145L65.9229 62.1526ZM77.5398 60.1298L75.9178 45.4351L82.0247 44.761L83.5835 58.8832C83.8328 61.1415 84.857 61.9621 87.0517 61.7198C89.1827 61.4846 90.0281 60.3933 89.7859 58.1986L88.227 44.0764L94.3339 43.4023L95.956 58.097C96.5282 63.2816 93.4937 66.7072 87.6731 67.3496C81.7888 67.9991 78.1191 65.3779 77.5398 60.1298ZM98.2728 65.5036L104.02 53.4079L96.0378 43.2142L103.004 42.4453L107.038 48.3744L107.102 48.3674L109.81 41.694L116.744 40.9287L111.145 52.6215L119.361 63.1759L112.427 63.9412L108.127 57.655L108.064 57.662L105.207 64.7382L98.2728 65.5036ZM129.133 62.0972L126.676 39.8324L135.582 38.8494C140.671 38.2876 145.637 41.2808 146.476 48.8826C146.922 52.9221 146.284 55.89 144.597 57.8148C142.906 59.7077 140.647 60.8262 137.817 61.1387L129.133 62.0972ZM134.622 55.8251L136.722 55.5934C138.057 55.4459 139.065 54.9484 139.709 54.0725C140.384 53.193 140.605 51.6878 140.369 49.5567C139.934 45.6127 138.203 44.2262 135.5 44.5246L133.401 44.7563L134.622 55.8251ZM149.944 59.8L147.487 37.5353L162.531 35.8746L163.142 41.409L154.205 42.3956L154.542 45.449L162.748 44.5432L163.296 49.5051L155.089 50.4109L155.44 53.5916L164.474 52.5945L165.085 58.1289L149.944 59.8ZM165.582 50.2829L171.117 48.8027C171.963 51.5102 173.472 52.6315 175.921 52.3612C177.734 52.1611 178.745 51.4056 178.632 50.3877C178.492 49.1155 177.302 48.5386 173.009 47.5637C167.886 46.3585 165.636 44.643 165.309 41.6849C164.877 37.7727 168.131 34.5805 172.934 34.0504C177.736 33.5202 181.671 35.919 182.909 40.1286L177.356 41.7396C176.544 39.9297 175.192 39.0488 173.506 39.2349C172.011 39.3999 171.152 40.0742 171.254 40.9966C171.348 41.8554 172.285 42.1706 176.641 43.1385C181.694 44.2871 184.208 46.3597 184.584 49.763C185.037 53.8661 181.805 56.9594 176.461 57.5492C173.63 57.8617 171.228 57.3864 169.313 56.0846C167.399 54.7828 166.156 52.8595 165.582 50.2829ZM187.404 55.6652L184.947 33.4004L191.054 32.7263L193.511 54.9911L187.404 55.6652ZM194.531 43.6427C193.674 36.7511 197.509 31.2412 203.626 30.6625C208.461 30.1289 212.837 33.0262 213.908 37.4796L208.334 39.1894C207.622 37.1111 206.156 36.0817 204.248 36.2923C201.576 36.5872 200.207 39.0564 200.638 42.9686C201.074 46.9126 202.874 48.9353 205.928 48.5982C207.964 48.3736 208.996 47.2293 208.892 45.4058L205.138 45.8201L204.654 41.4308L214.1 40.388L214.455 43.6005C215.098 49.4212 211.925 53.6347 206.231 54.2632C199.997 54.9513 195.307 50.672 194.531 43.6427ZM217.845 52.3052L215.387 30.0404L221.335 29.3839L229.387 40.7933L229.451 40.7863L228.11 28.6361L234.217 27.962L236.674 50.2268L230.726 50.8833L222.674 39.4739L222.61 39.4809L223.951 51.6311L217.845 52.3052ZM240.682 49.7844L239.99 43.5184L246.415 42.8093L247.107 49.0752L240.682 49.7844Z" fill="#0A0A0A"/>
<rect x="168" y="66.5703" width="121" height="34.4801" rx="17.24" transform="rotate(-5.96098 168 66.5703)" fill="#0A0A0A"/>
<path d="M193.125 93.3488L185.96 71.6037L192.13 70.9226L196.033 83.5305L196.097 83.5234L198.651 70.2028L202.786 69.7464L208.151 82.1928L208.215 82.1858L210.769 68.8652L214.904 68.4088L220.27 80.8552L220.333 80.8482L222.887 67.5276L227.022 67.0712L232.388 79.5176L232.452 79.5106L235.006 66.1899L239.141 65.7335L244.507 78.1799L244.57 78.1729L245.661 65.0138L251.895 64.3257L249.582 87.1171L243.602 87.7771L238.246 76.0057L238.183 76.0127L235.523 88.6689L231.484 89.1147L226.096 77.3468L226.032 77.3538L223.405 90.0065L219.365 90.4524L213.978 78.6844L213.914 78.6915L211.286 91.3441L207.247 91.79L201.859 80.0221L201.796 80.0291L199.168 92.6818L193.125 93.3488Z" fill="#F3D30B"/>
<path d="M268.417 76.1736L274.667 82.8753M258 65.0039L265.365 83.9588L267.979 75.7044L275.677 72.9008L258 65.0039Z" stroke="#F3D30B" stroke-width="4" stroke-linecap="round" stroke-linejoin="round"/>
<path d="M162.176 85.9317C162.69 85.2825 162.581 84.339 161.932 83.8245L151.352 75.439C150.703 74.9244 149.759 75.0335 149.245 75.6828C148.73 76.332 148.839 77.2755 149.488 77.79L158.893 85.2438L151.439 94.6481C150.924 95.2974 151.034 96.2408 151.683 96.7554C152.332 97.27 153.275 97.1608 153.79 96.5116L162.176 85.9317ZM40 99L40.1724 100.49L161.172 86.4901L161 85L160.828 83.5099L39.8276 97.5099L40 99Z" fill="black"/>
</svg>
