<svg width="189" height="117" viewBox="0 0 189 117" fill="none" xmlns="http://www.w3.org/2000/svg">
<path d="M157.149 57.3656C156.405 61.1593 158.877 64.8381 162.671 65.5824L175.122 68.0255C178.915 68.7698 181.387 72.4486 180.643 76.2422L174.055 109.82C173.31 113.613 169.632 116.085 165.838 115.341L6.86905 84.1498C3.07539 83.4055 0.603439 79.7267 1.34779 75.933L7.93603 42.3555C8.68038 38.5618 12.3592 36.0899 16.1528 36.8342L28.6039 39.2772C32.3976 40.0216 36.0763 37.5496 36.8207 33.756L41.0879 12.0076C41.8323 8.21393 45.5111 5.74197 49.3047 6.48633L155.895 27.4004C159.689 28.1448 162.161 31.8236 161.417 35.6172L157.149 57.3656Z" fill="#EE3C4B"/>
<path d="M57.406 44.9188L54.2313 21.4421L60.2876 22.6519L62.0234 38.3031L62.0862 38.3157L69.6702 24.5261L75.7266 25.7359L63.7762 46.1913L57.406 44.9188ZM72.8164 47.9971L77.2042 26.0311L83.2291 27.2346L78.8413 49.2006L72.8164 47.9971ZM82.5 49.9315L86.8878 27.9654L95.6743 29.7205C100.695 30.7235 104.524 35.0779 103.026 42.5777C102.23 46.563 100.725 49.1992 98.5346 50.5239C96.351 51.8172 93.8596 52.2006 91.0668 51.6427L82.5 49.9315ZM89.6282 45.6121L91.6993 46.0258C93.0173 46.2891 94.128 46.1194 95.0065 45.479C95.9163 44.845 96.5812 43.4767 97.0012 41.3742C97.7785 37.4831 96.548 35.6383 93.8807 35.1055L91.8096 34.6918L89.6282 45.6121ZM103.032 54.0328L107.42 32.0667L122.263 35.0316L121.172 40.4918L112.354 38.7304L111.752 41.7429L119.848 43.3601L118.87 48.2554L110.774 46.6382L110.148 49.7762L119.06 51.5564L117.969 57.0165L103.032 54.0328ZM121.305 46.2942C122.678 39.422 127.904 35.4733 134.023 36.6957C140.143 37.918 143.483 43.5779 142.11 50.4501C140.737 57.3223 135.491 61.202 129.372 59.9797C123.253 58.7573 119.932 53.1665 121.305 46.2942ZM136.085 49.2466C136.843 45.4496 135.581 42.7827 132.945 42.2562C130.309 41.7297 128.088 43.7008 127.33 47.4977C126.578 51.2634 127.846 53.8989 130.513 54.4317C133.18 54.9645 135.326 53.0436 136.085 49.2466ZM30.5353 75.2428L34.9231 53.2767L49.7658 56.2416L48.6752 61.7017L39.8574 59.9403L39.2556 62.9528L47.3517 64.5701L46.3738 69.4653L38.2777 67.8481L37.6509 70.9861L46.5629 72.7663L45.4722 78.2265L30.5353 75.2428ZM48.3704 78.8054L52.7582 56.8393L61.5446 58.5945C66.5654 59.5974 70.3947 63.9518 68.8965 71.4517C68.1005 75.4369 66.5949 78.0731 64.405 79.3978C62.2214 80.6911 59.73 81.0745 56.9372 80.5166L48.3704 78.8054ZM55.4986 74.486L57.5697 74.8997C58.8877 75.163 59.9984 74.9933 60.8769 74.3529C61.7867 73.7189 62.4516 72.3506 62.8716 70.2482C63.6488 66.357 62.4184 64.5123 59.7511 63.9795L57.68 63.5657L55.4986 74.486ZM68.9023 82.9067L73.2901 60.9407L79.3151 62.1442L74.9273 84.1102L68.9023 82.9067ZM83.293 85.7813L86.5776 69.3382L80.4585 68.1158L81.5617 62.5929L99.8249 66.2411L98.7217 71.764L92.6026 70.5417L89.318 86.9848L83.293 85.7813ZM97.6776 88.6547L102.065 66.6886L108.09 67.8921L103.703 89.8582L97.6776 88.6547ZM107.361 90.589L111.749 68.623L117.617 69.7952L121.844 83.105L121.907 83.1175L124.301 71.1303L130.326 72.3338L125.938 94.2999L120.07 93.1277L115.843 79.8179L115.781 79.8054L113.386 91.7926L107.361 90.589ZM130.323 83.7871C131.589 76.9588 136.91 72.8657 142.916 74.1634C147.686 75.1162 150.981 79.2009 150.656 83.7697L144.826 83.7146C144.775 81.5181 143.689 80.0938 141.806 79.7177C139.17 79.1911 137.119 81.1308 136.348 84.9906C135.57 88.8817 136.676 91.3541 139.688 91.9558C141.696 92.357 143.027 91.5785 143.478 89.8086L139.775 89.069L140.64 84.7385L149.96 86.6002L149.327 89.7696C148.18 95.5121 143.882 98.5694 138.265 97.4474C132.114 96.2188 128.937 90.722 130.323 83.7871Z" fill="#EEE6E2"/>
</svg>
